<svg width="343" height="149" viewBox="0 0 343 149" fill="none" xmlns="http://www.w3.org/2000/svg">
<path d="M49.3129 103.874C49.3129 109.489 50.1227 113.256 51.7423 115.177C53.362 117.097 56.3067 118.058 60.5767 118.058C64.9939 118.058 70.6626 115.841 77.5828 111.409L82 118.722C69.0429 129.507 58.3681 134.9 49.9755 134.9C41.5828 134.9 34.9571 132.906 30.0982 128.917C25.2393 124.78 22.8098 117.54 22.8098 107.199V49.1363H11.7669L10 40.9367L22.8098 36.9477V26.0887L49.3129 13.9V38.2773L75.3742 36.2828L72.9448 50.6876L49.3129 49.8011V103.874Z" fill="black"/>
<path d="M134.041 72.5078V58.2416H137.359V72.5078H151.625V75.8255H137.359V90.0917H134.041V75.8255H119.775V72.5078H134.041Z" fill="black"/>
<path fill-rule="evenodd" clip-rule="evenodd" d="M260.933 131.684C292.571 131.684 318.218 106.037 318.218 74.4C318.218 42.7629 292.571 17.1159 260.933 17.1159C229.296 17.1159 203.649 42.7629 203.649 74.4C203.649 106.037 229.296 131.684 260.933 131.684ZM260.933 144.654C299.734 144.654 331.188 113.2 331.188 74.4C331.188 35.5997 299.734 4.14587 260.933 4.14587C222.133 4.14587 190.679 35.5997 190.679 74.4C190.679 113.2 222.133 144.654 260.933 144.654Z" fill="black"/>
<path fill-rule="evenodd" clip-rule="evenodd" d="M252.792 55.1665C249.989 55.6721 248.164 56.3322 247.24 56.8937C244.534 58.5388 243.253 60.3301 242.562 61.9758C241.821 63.7413 241.592 65.7518 241.644 67.9919C241.705 70.6206 241.885 73.5406 242.485 76.0163C243.14 78.7234 243.945 79.4338 244.078 79.5143C250.107 83.1706 255.794 83.2445 261.167 83.2445C265.673 83.2445 270.881 82.3086 276.225 79.3747C278.255 78.2599 279.296 76.9989 279.958 75.5172C280.705 73.8455 281.137 71.5051 281.194 68.0364C281.236 65.4605 280.454 62.552 279.085 60.0511C277.661 57.4484 276.047 56.0678 275.083 55.642C274.671 55.4597 273.179 55.0503 270.471 54.7397C267.958 54.4514 264.908 54.3031 261.758 54.3611C258.6 54.4192 255.478 54.6821 252.792 55.1665ZM271.949 41.8542C274.891 42.1917 278.024 42.7617 280.326 43.7787C284.791 45.7519 288.226 49.737 290.463 53.8255C292.756 58.0158 294.246 63.124 294.162 68.249C294.093 72.4811 293.577 76.8316 291.8 80.8093C289.937 84.977 286.875 88.3239 282.467 90.7439C274.934 94.8796 267.517 96.2145 261.167 96.2145C261.098 96.2145 261.028 96.2145 260.958 96.2145C255.457 96.2154 246.607 96.2169 237.353 90.6043C232.676 87.7682 230.767 82.7345 229.879 79.0696C228.935 75.1732 228.743 71.0932 228.677 68.2935C228.603 65.1051 228.881 61.0597 230.603 56.9568C232.375 52.7341 235.512 48.8445 240.503 45.8108C243.427 44.0329 247.076 43.0182 250.49 42.4025C254.021 41.7656 257.859 41.4607 261.519 41.3933C265.187 41.3258 268.813 41.4944 271.949 41.8542Z" fill="black"/>
<path d="M230.468 42.5602C230.352 45.4429 231.776 51.3262 232.881 53.3448L250.361 42.5602C247.718 40.9745 244.558 38.3528 239.694 35.9292C237.317 34.7452 233.591 34.3437 231.909 34.4879C231.477 35.9776 230.583 39.6775 230.468 42.5602Z" fill="black"/>
<path d="M291.399 42.5602C291.515 45.4429 290.091 51.3262 288.986 53.3448L271.506 42.5602C274.149 40.9745 277.309 38.3528 282.173 35.9292C284.55 34.7452 288.276 34.3437 289.958 34.4879C290.39 35.9776 291.284 39.6775 291.399 42.5602Z" fill="black"/>
<path d="M246.442 106.288C245.827 112.811 247.417 130.135 248.289 137.982L275.213 136.598C275.623 128.341 276.382 110.719 276.136 106.288C275.828 100.748 273.982 91.8249 268.597 90.5947C263.212 89.3645 261.674 89.5177 254.443 90.5947C247.212 91.6717 247.212 98.1336 246.442 106.288Z" fill="black"/>
<path fill-rule="evenodd" clip-rule="evenodd" d="M216.142 94.9051C216.676 91.9686 219.489 90.021 222.425 90.5549C227.762 91.5251 231.844 95.7243 234.461 99.6488C234.856 100.243 235.183 100.776 235.493 101.282C236.1 102.273 236.642 103.158 237.515 104.187C238.674 105.553 239.721 106.225 240.745 106.414C241.486 106.55 243.078 106.374 245.349 105.558C247.446 104.804 249.392 103.773 250.453 103.109L256.181 112.275C254.552 113.294 251.914 114.684 249.004 115.729C246.268 116.713 242.43 117.714 238.788 117.043C234.335 116.223 231.257 113.518 229.272 111.178C227.806 109.45 226.487 107.298 225.827 106.221C225.665 105.956 225.542 105.757 225.467 105.644C223.426 102.583 221.499 101.372 220.492 101.189C217.555 100.655 215.608 97.8416 216.142 94.9051Z" fill="black"/>
</svg>
